<?xml version="1.0" standalone="no"?>
<!DOCTYPE svg PUBLIC "-//W3C//DTD SVG 20010904//EN"
 "http://www.w3.org/TR/2001/REC-SVG-20010904/DTD/svg10.dtd">
<svg version="1.0" xmlns="http://www.w3.org/2000/svg"
 width="4096.000000pt" height="2528.000000pt" viewBox="0 0 4096.000000 2528.000000"
 preserveAspectRatio="xMidYMid meet">

<g transform="translate(0.000000,2528.000000) scale(0.100000,-0.100000)"
fill="#000000" stroke="none">
<path d="M11270 17213 l1 -2418 23 90 c31 118 75 232 142 361 89 175 222 352
279 374 27 10 125 -4 169 -25 84 -40 86 -89 10 -211 -126 -199 -254 -440 -254
-476 0 -31 41 -20 94 24 78 65 279 245 510 457 239 218 279 244 381 244 118 0
143 -38 95 -140 -37 -81 -106 -150 -344 -347 -153 -128 -165 -140 -154 -160
17 -33 191 -199 231 -220 l35 -19 53 26 c30 15 126 80 214 146 88 65 169 120
180 121 37 4 53 0 70 -17 22 -22 13 -70 -28 -146 -58 -110 -295 -309 -474
-398 -89 -45 -110 -51 -165 -52 -75 -1 -148 32 -241 109 -52 42 -160 166 -185
211 -8 14 -30 2 -153 -89 -162 -118 -267 -184 -310 -193 -57 -13 -154 35 -172
85 -3 8 -6 -933 -6 -2092 l-1 -2108 2460 0 2460 0 0 2313 -1 2312 -20 -39
c-11 -21 -57 -76 -102 -123 -141 -147 -359 -273 -528 -303 -77 -14 -124 -8
-191 26 -27 14 -51 24 -53 22 -1 -2 -12 -59 -24 -128 -42 -238 -88 -349 -172
-410 -48 -35 -125 -60 -181 -60 -47 0 -88 35 -88 76 0 58 79 259 191 483 64
130 114 241 110 248 -4 8 -31 -8 -81 -48 -157 -125 -289 -187 -416 -196 -89
-6 -122 5 -169 55 -29 31 -55 108 -55 164 0 21 -5 38 -10 38 -6 0 -113 -69
-238 -154 -239 -162 -286 -189 -341 -200 -81 -15 -158 38 -146 101 3 17 32
106 65 197 64 178 72 213 43 197 -10 -5 -107 -86 -216 -179 -256 -221 -338
-273 -431 -274 -52 -1 -100 26 -134 77 -27 38 -30 134 -8 247 59 307 233 493
432 463 53 -8 84 -34 84 -72 0 -15 -25 -80 -56 -145 -87 -182 -68 -183 138 -7
274 235 374 299 471 299 78 0 157 -51 157 -101 0 -34 -23 -141 -50 -234 -24
-83 -26 -125 -6 -125 19 0 100 63 227 178 123 111 175 143 230 144 31 0 47 -6
69 -27 48 -46 54 -73 31 -141 -50 -140 -4 -242 92 -203 48 20 125 66 187 113
30 23 76 59 103 79 62 47 110 61 148 42 15 -8 32 -15 37 -15 6 0 75 109 155
243 80 133 165 269 189 302 105 140 198 205 295 205 86 0 109 -37 101 -160
-10 -137 -85 -254 -352 -550 -97 -107 -176 -200 -176 -206 0 -23 66 -74 96
-74 42 0 292 125 389 196 44 31 97 64 117 72 34 13 40 13 63 -2 l25 -16 0
2290 0 2290 -2460 0 -2460 0 0 -2417z"/>
<path d="M23723 9939 c-39 -5 -99 -18 -133 -29 -195 -66 -279 -209 -280 -478
l0 -102 -115 -57 -115 -58 0 -102 0 -103 115 0 115 0 0 -615 0 -615 210 0 210
0 0 615 0 615 180 0 180 0 0 160 0 160 -181 0 -181 0 4 83 c5 105 25 149 82
177 51 24 143 26 231 5 97 -23 88 -31 141 128 26 78 49 147 51 153 5 14 -127
50 -230 64 -89 11 -180 11 -284 -1z"/>
<path d="M11262 8858 l3 -1073 210 0 210 0 3 241 2 242 45 36 c25 20 65 52 88
71 l44 35 208 -293 c114 -160 217 -302 228 -314 20 -23 25 -23 254 -23 128 0
233 4 233 8 0 4 -144 201 -320 437 -176 237 -318 433 -317 437 1 3 121 136
267 295 146 158 282 307 304 331 l39 42 -239 -1 -239 0 -217 -237 c-119 -131
-255 -287 -302 -347 -47 -60 -89 -111 -93 -112 -5 -2 -3 79 4 179 6 101 12
393 12 651 l1 467 -215 0 -215 0 2 -1072z"/>
<path d="M28970 9638 c-6 -13 -34 -87 -63 -166 l-54 -143 -116 -70 -117 -70 0
-90 0 -89 99 0 99 0 5 -432 c4 -354 8 -445 21 -496 58 -227 195 -322 466 -322
127 0 222 13 313 42 l67 22 0 157 0 157 -77 -21 c-47 -12 -112 -20 -163 -21
-97 -1 -139 16 -177 74 -23 33 -23 34 -23 436 l0 404 215 0 215 0 0 160 0 160
-215 0 -215 0 -2 163 -3 162 -133 3 c-129 3 -132 2 -142 -20z"/>
<path d="M13500 9354 c-129 -17 -310 -68 -402 -115 l-38 -19 70 -140 c39 -77
71 -140 73 -140 1 0 38 14 82 31 171 65 346 92 438 65 105 -30 147 -93 150
-222 l2 -69 -200 -6 c-355 -12 -530 -63 -652 -192 -69 -73 -95 -143 -101 -274
-7 -173 33 -296 128 -389 87 -87 195 -124 355 -124 199 1 323 46 436 161 39
39 74 68 78 63 5 -5 25 -53 46 -107 l37 -98 147 3 146 3 0 565 c-1 512 -2 571
-19 629 -52 187 -170 299 -375 352 -75 20 -315 34 -401 23z m377 -959 c-9
-157 -54 -241 -161 -298 -35 -19 -57 -22 -153 -22 -121 0 -142 8 -186 67 -26
34 -33 116 -16 175 34 122 167 177 438 182 l84 1 -6 -105z"/>
<path d="M15446 9344 c-110 -24 -189 -68 -262 -147 -35 -38 -67 -66 -73 -63
-5 3 -12 18 -15 33 -4 16 -16 58 -27 96 l-20 67 -159 0 -160 0 0 -775 0 -775
208 2 207 3 5 460 c4 333 10 475 19 515 40 165 120 245 253 257 120 11 205
-40 243 -147 18 -51 20 -89 23 -572 l3 -518 209 0 209 0 3 473 c4 441 6 476
25 539 35 117 90 180 186 212 117 39 237 3 284 -87 36 -70 37 -92 43 -612 l5
-520 208 -3 208 -2 -3 597 c-3 589 -4 599 -26 664 -63 189 -188 282 -416 311
-205 26 -411 -45 -506 -174 -19 -27 -42 -48 -51 -48 -9 0 -34 23 -55 50 -75
98 -183 152 -341 170 -112 13 -142 12 -227 -6z"/>
<path d="M18213 9341 c-121 -30 -225 -94 -279 -172 -15 -22 -32 -39 -38 -39
-6 0 -24 45 -40 100 l-28 100 -159 0 -159 0 0 -775 0 -775 208 2 207 3 6 470
c4 404 8 478 22 529 45 154 116 220 251 233 146 13 229 -60 256 -227 6 -38 10
-263 10 -538 l0 -472 208 2 207 3 6 475 c6 503 7 519 57 616 49 96 157 152
275 141 108 -10 176 -83 197 -215 6 -31 10 -274 10 -539 l0 -483 211 0 210 0
-3 593 c-3 588 -4 593 -27 662 -31 94 -60 142 -120 199 -190 177 -605 161
-780 -30 -28 -30 -51 -60 -51 -65 0 -5 -10 -9 -22 -9 -16 1 -34 17 -58 51 -66
94 -180 151 -337 169 -117 13 -155 12 -240 -9z"/>
<path d="M20785 9350 c-300 -48 -506 -248 -569 -553 -24 -115 -31 -269 -17
-383 41 -329 213 -539 516 -626 72 -21 100 -23 280 -23 126 0 222 5 260 14 91
19 196 52 238 73 l37 18 0 161 c0 125 -3 160 -12 156 -282 -124 -571 -151
-722 -69 -95 52 -158 153 -172 277 l-7 55 498 0 497 0 -5 193 c-3 154 -8 205
-24 257 -89 289 -301 442 -633 455 -58 2 -132 0 -165 -5z m264 -316 c86 -36
150 -132 166 -251 l7 -53 -296 0 -296 0 0 29 c0 59 39 157 81 205 45 50 77 71
136 86 49 12 155 4 202 -16z"/>
<path d="M22714 9346 c-119 -27 -228 -100 -308 -207 -27 -35 -53 -64 -59 -64
-6 0 -25 56 -42 125 l-30 125 -157 3 -158 3 0 -776 0 -775 208 2 207 3 5 455
c5 439 6 457 26 500 49 103 125 168 236 201 55 17 88 20 178 17 80 -2 110 0
110 9 0 6 7 94 15 194 9 100 14 183 13 184 -12 12 -192 12 -244 1z"/>
<path d="M24850 9348 c-318 -45 -529 -255 -591 -588 -7 -36 -12 -130 -12 -210
0 -273 70 -451 236 -607 78 -73 164 -123 267 -155 66 -20 95 -23 240 -23 183
1 241 12 365 69 177 83 300 246 357 473 18 73 22 116 22 258 1 145 -3 182 -22
253 -50 184 -158 338 -300 429 -144 93 -356 131 -562 101z m290 -366 c91 -45
136 -125 161 -284 15 -92 6 -294 -16 -368 -50 -164 -133 -230 -293 -230 -105
0 -148 15 -208 75 -62 62 -90 135 -106 283 -19 178 11 354 76 453 69 103 253
138 386 71z"/>
<path d="M26865 9350 c-129 -28 -250 -107 -329 -214 -27 -36 -52 -66 -57 -66
-12 0 -12 0 -45 143 l-27 117 -158 0 -159 0 0 -775 0 -775 208 2 207 3 5 450
5 450 29 63 c36 79 113 152 194 183 49 20 76 23 189 23 l132 1 5 45 c11 88 28
342 24 346 -10 9 -185 13 -223 4z"/>
<path d="M27746 9350 c-153 -18 -276 -69 -356 -149 -77 -77 -110 -161 -110
-281 0 -138 40 -232 136 -319 56 -52 96 -73 428 -230 159 -75 185 -100 186
-177 0 -87 -69 -124 -232 -124 -54 0 -134 7 -176 16 -63 13 -254 71 -325 99
-16 7 -17 -3 -15 -166 l3 -174 83 -28 c134 -45 260 -59 467 -54 145 4 194 9
255 27 196 57 314 171 349 338 34 161 -12 326 -118 425 -60 57 -145 103 -338
186 -203 87 -214 93 -252 136 -52 60 -37 128 35 155 38 15 194 12 273 -5 38
-8 113 -31 166 -51 55 -21 99 -33 104 -28 8 9 121 277 121 287 0 6 -116 51
-188 72 -140 42 -354 61 -496 45z"/>
<path d="M24080 7121 l-25 -7 0 -549 0 -550 43 -3 42 -3 0 560 c0 620 5 570
-60 552z"/>
<path d="M22970 7070 c-24 -24 -26 -57 -4 -88 31 -44 114 -15 114 41 0 60 -68
89 -110 47z"/>
<path d="M24367 7072 c-22 -25 -21 -75 1 -95 41 -37 112 -6 112 48 0 55 -77
87 -113 47z"/>
<path d="M25408 6982 l-38 -15 0 -103 0 -104 -60 0 -60 0 0 -30 0 -30 60 0 60
0 0 -287 c0 -262 2 -292 20 -330 30 -67 101 -101 183 -89 59 9 68 17 61 53 -6
29 -8 30 -37 22 -61 -17 -119 16 -137 80 -5 20 -10 152 -10 294 l0 257 85 0
c47 0 85 3 85 8 0 4 -7 18 -16 30 -13 19 -24 22 -84 22 l-69 0 -3 118 -3 118
-37 -14z"/>
<path d="M15463 6780 c-67 -27 -143 -109 -174 -188 -28 -71 -38 -238 -19 -321
27 -123 98 -213 198 -252 80 -31 220 -32 317 -1 98 31 101 33 85 72 -9 23 -17
29 -29 24 -104 -44 -119 -47 -211 -48 -79 0 -102 3 -136 21 -83 44 -139 141
-146 253 l-3 55 279 3 279 2 -6 73 c-10 135 -76 250 -171 299 -61 32 -193 35
-263 8z m196 -60 c44 -12 87 -53 116 -111 23 -45 47 -144 37 -154 -3 -3 -109
-5 -235 -5 l-230 0 7 46 c23 170 156 267 305 224z"/>
<path d="M16329 6776 c-56 -23 -105 -53 -146 -89 l-22 -19 -6 38 c-3 22 -7 46
-8 54 -1 9 -15 16 -35 18 l-32 3 0 -385 0 -386 40 0 40 0 0 284 0 284 53 44
c81 70 151 102 224 102 52 1 65 -3 88 -24 58 -54 59 -59 63 -387 l4 -303 39 0
39 0 0 293 c0 337 -6 375 -69 438 -62 63 -171 77 -272 35z"/>
<path d="M17042 6779 c-106 -41 -181 -152 -202 -299 -19 -130 12 -277 75 -362
87 -118 269 -157 460 -97 87 27 91 31 75 68 -7 17 -13 31 -14 31 -2 0 -31 -12
-67 -27 -53 -22 -80 -26 -159 -27 -87 -1 -99 1 -147 28 -80 44 -125 124 -139
246 l-7 60 283 0 283 0 -6 68 c-6 73 -35 161 -70 213 -30 44 -99 96 -145 109
-60 16 -161 11 -220 -11z m213 -68 c22 -10 50 -29 62 -42 31 -34 63 -111 70
-169 l6 -50 -233 0 -233 0 6 49 c11 93 73 183 147 215 48 21 127 19 175 -3z"/>
<path d="M18323 6781 c-166 -57 -256 -241 -225 -461 30 -209 145 -323 327
-325 80 0 89 3 208 63 11 5 9 -167 -3 -207 -12 -42 -43 -76 -95 -104 -57 -31
-216 -31 -295 1 -68 27 -64 27 -78 -3 -16 -34 -16 -32 16 -49 84 -43 268 -58
362 -30 67 20 153 101 169 160 7 25 11 199 11 497 l0 457 -24 0 c-18 0 -27 -8
-35 -30 l-10 -31 -38 25 c-87 57 -193 71 -290 37z m215 -71 c24 -11 57 -29 73
-41 l29 -20 0 -244 0 -243 -42 -36 c-97 -83 -255 -80 -335 6 -88 94 -110 325
-42 459 28 57 69 100 114 120 54 25 147 24 203 -1z"/>
<path d="M20132 6786 c-89 -29 -152 -108 -152 -190 0 -92 69 -158 240 -227
171 -71 230 -143 185 -229 -40 -77 -201 -99 -337 -47 l-67 26 -11 -32 c-13
-39 -2 -49 76 -72 167 -48 341 -15 402 78 36 54 39 159 6 204 -36 48 -114 100
-208 139 -114 46 -169 80 -191 117 -35 59 11 141 92 165 77 23 154 14 264 -32
11 -5 19 1 27 19 18 39 16 42 -45 65 -74 28 -219 36 -281 16z"/>
<path d="M20868 6781 c-25 -10 -61 -29 -78 -41 -34 -24 -50 -17 -50 23 0 12
-8 17 -30 17 l-30 0 0 -555 0 -555 23 0 c12 0 32 3 45 6 22 6 22 8 22 196 l0
190 35 -21 c102 -60 214 -64 321 -11 138 68 208 238 183 448 -12 100 -63 208
-120 252 -86 69 -220 90 -321 51z m207 -70 c79 -37 125 -112 145 -236 31 -191
-53 -373 -186 -404 -68 -16 -153 0 -215 40 l-49 31 0 248 0 248 39 31 c22 17
54 38 73 46 47 20 144 19 193 -4z"/>
<path d="M21657 6783 c-131 -45 -217 -196 -217 -380 0 -332 230 -487 560 -376
66 22 72 29 55 64 l-15 28 -44 -19 c-147 -63 -302 -49 -382 35 -48 50 -84 143
-84 217 l0 48 281 0 280 0 -6 58 c-19 160 -81 269 -181 317 -54 26 -183 30
-247 8z m211 -74 c63 -31 108 -108 127 -217 l7 -42 -236 0 c-271 0 -253 -9
-215 102 26 78 71 135 123 159 56 25 138 24 194 -2z"/>
<path d="M22453 6781 c-29 -10 -71 -30 -93 -46 -112 -77 -170 -258 -141 -431
41 -236 204 -348 436 -299 64 14 125 35 143 50 5 5 -21 55 -29 55 -5 0 -32 -9
-61 -21 -69 -27 -198 -29 -252 -4 -170 81 -211 398 -72 562 69 82 191 104 321
58 39 -14 71 -25 72 -25 1 0 9 13 17 29 l15 29 -52 20 c-119 47 -214 54 -304
23z"/>
<path d="M23440 6785 c-57 -14 -130 -42 -130 -50 0 -2 5 -16 12 -30 8 -18 16
-24 27 -19 61 26 142 44 195 44 130 0 196 -68 196 -202 l0 -68 -122 0 c-194 0
-277 -29 -332 -113 -77 -120 -21 -292 111 -338 21 -8 72 -14 113 -13 62 0 85
5 130 28 30 15 64 36 76 47 27 26 34 24 34 -8 0 -41 13 -55 46 -51 l29 3 0
295 c0 261 -2 300 -18 342 -47 121 -196 175 -367 133z m300 -494 l0 -109 -49
-45 c-113 -101 -283 -93 -334 16 -36 75 -10 173 56 212 44 26 85 33 215 34
l112 1 0 -109z"/>
<path d="M24782 6782 c-91 -33 -142 -99 -142 -187 0 -25 7 -59 15 -74 23 -46
92 -98 174 -132 195 -81 246 -121 246 -195 0 -40 -5 -50 -36 -79 -67 -61 -183
-68 -316 -20 l-61 22 -11 -24 c-20 -44 -14 -52 62 -75 84 -26 215 -30 288 -9
89 25 159 109 159 191 0 85 -61 154 -184 210 -36 17 -96 43 -132 60 -115 52
-149 113 -104 187 32 52 72 68 175 68 70 -1 100 -6 137 -23 l48 -21 15 28 c18
35 12 41 -60 66 -77 27 -208 30 -273 7z"/>
<path d="M18888 6777 c-16 -6 -28 -13 -28 -16 0 -3 65 -174 144 -379 l144
-372 -30 -91 c-34 -102 -67 -146 -128 -174 -30 -14 -40 -24 -40 -42 0 -53 74
-35 151 35 l50 47 180 494 c98 271 179 495 179 498 0 2 -19 3 -42 1 l-43 -3
-115 -317 c-63 -174 -118 -319 -121 -323 -7 -7 -17 18 -160 402 -52 139 -98
252 -104 252 -5 -1 -22 -6 -37 -12z"/>
<path d="M17652 6398 l3 -383 43 -3 42 -3 0 284 0 285 53 40 c63 49 152 92
190 92 30 0 32 7 15 45 -7 15 -19 25 -32 25 -27 0 -109 -38 -179 -83 l-55 -35
-12 59 c-12 55 -14 59 -41 59 l-29 0 2 -382z"/>
<path d="M22972 6398 l3 -383 43 -3 42 -3 0 385 0 386 -45 0 -45 0 2 -382z"/>
<path d="M24370 6394 l0 -385 43 3 42 3 3 383 2 382 -45 0 -45 0 0 -386z"/>
</g>
</svg>
